<svg width="119" height="119" viewBox="0 0 119 119" fill="none" xmlns="http://www.w3.org/2000/svg">
<g clip-path="url(#clip0_506_3484)">
<path d="M91.38 34.6114C92.9421 33.0493 92.9421 30.5167 91.38 28.9546L90.0456 27.6202C88.4835 26.0581 85.9508 26.0581 84.3887 27.6202L62.3285 49.6804C60.7664 51.2425 58.2337 51.2425 56.6717 49.6804L34.6114 27.6202C33.0493 26.0581 30.5167 26.0581 28.9546 27.6202L27.6202 28.9546C26.0581 30.5167 26.0581 33.0493 27.6202 34.6114L49.6804 56.6717C51.2425 58.2337 51.2425 60.7664 49.6804 62.3285L27.6202 84.3887C26.0581 85.9508 26.0581 88.4835 27.6202 90.0456L28.9546 91.38C30.5167 92.9421 33.0493 92.9421 34.6114 91.38L56.6717 69.3198C58.2337 67.7577 60.7664 67.7577 62.3285 69.3198L84.3887 91.38C85.9508 92.9421 88.4835 92.9421 90.0456 91.38L91.38 90.0456C92.9421 88.4835 92.9421 85.9508 91.38 84.3887L69.3198 62.3285C67.7577 60.7664 67.7577 58.2337 69.3198 56.6717L91.38 34.6114Z" fill="#2C3542"/>
</g>
<defs>
<clipPath id="clip0_506_3484">
<rect width="119" height="119" rx="8" fill="white"/>
</clipPath>
</defs>
</svg>
