<svg width="120" height="120" viewBox="0 0 120 120" fill="none" xmlns="http://www.w3.org/2000/svg">
<g clip-path="url(#clip0_421_3529)">
<path d="M60.5 57.6562C67.9029 57.6562 74.4429 59.4275 79.7567 61.7437C84.6617 63.9237 87.75 68.8287 87.75 74.1425V81.5L43.5 81.4546V74.1425C44 66 36.3383 63.9237 41.2433 61.7892C46.5571 59.4275 53.0971 57.6562 60.5 57.6562ZM24.1667 58.7917C26.4375 58.7917 26.4375 58.7917 26.4375 58.7917C22.7708 54.7917 21.5 51 18.5 45C18.5 40.625 15.0833 44.7125 15.0833 49.7083C15.0833 54.7042 19.1708 58.7917 24.1667 58.7917ZM29.2987 63.7875C27.6183 63.515 25.9379 63.3333 24.1667 63.3333C19.6704 63.3333 15.4013 64.2871 11.5408 65.9675C8.18 67.4208 6 70.6908 6 74.3696V81.5L36 81.6817V74.3696C36 70.6 35.5 68 29.2987 63.7875ZM96.8333 58.7917C101.829 58.7917 105.917 54.7042 105.917 49.7083C105.917 44.7125 101.829 40.625 96.8333 40.625C91.8375 40.625 87.75 44.7125 87.75 49.7083C87.75 54.7042 91.8375 58.7917 96.8333 58.7917ZM115 74.3696C115 70.6908 112.82 67.4208 109.459 65.9675C105.599 64.2871 101.33 63.3333 96.8333 63.3333C95.0621 63.3333 93.3817 63.515 91.7012 63.7875C93.5179 66.8758 94.5625 70.4183 94.5625 74.1879V81.5H115V74.3696ZM60.5 27C68.0392 27 74.125 33.0858 74.125 40.625C74.125 48.1642 68.0392 54.25 60.5 54.25C52.9608 54.25 46.875 48.1642 46.875 40.625C46.875 33.0858 52.9608 27 60.5 27Z" fill="#191F28"/>
<path d="M84.5 65C82.55 63.05 73.15 59 66.65 59C65.6 59 59.55 59 53.95 59C40.2 58.95 29 47.75 29 34H19C19 49.8 29.55 63.2 44 67.55V81.5H54H64H74V74.25L54 81.5L53.95 92.5C53.95 92.5 78 93 83.5 92.5C89 92 88 82.5 88 82.5C88 82.5 88 77 88 74.25C88 71.5 84.5 65 84.5 65Z" fill="#191F28"/>
</g>
<defs>
<clipPath id="clip0_421_3529">
<rect width="120" height="120" fill="white"/>
</clipPath>
</defs>
</svg>
