<svg width="120" height="120" viewBox="0 0 120 120" fill="none" xmlns="http://www.w3.org/2000/svg">
<g clip-path="url(#clip0_486_3489)">
<path d="M60 110C65.5 110 70 105.5 70 100H50C50 105.5 54.45 110 60 110ZM90 80V55C90 39.65 81.8 26.8 67.5 23.4V20C67.5 15.85 64.15 12.5 60 12.5C55.85 12.5 52.5 15.85 52.5 20V23.4C38.15 26.8 30 39.6 30 55V80L23.55 86.45C20.4 89.6 22.6 95 27.05 95H92.9C97.35 95 99.6 89.6 96.45 86.45L90 80Z" fill="#2C3542"/>
</g>
<defs>
<clipPath id="clip0_486_3489">
<rect width="120" height="120" fill="white"/>
</clipPath>
</defs>
</svg>
