<svg width="120" height="120" viewBox="0 0 120 120" fill="none" xmlns="http://www.w3.org/2000/svg">
<g clip-path="url(#clip0_486_3484)">
<path d="M77.5 70H73.55L72.15 68.65C78.15 61.65 81.25 52.1 79.55 41.95C77.2 28.05 65.6 16.95 51.6 15.25C30.45 12.65 12.65 30.45 15.25 51.6C16.95 65.6 28.05 77.2 41.95 79.55C52.1 81.25 61.65 78.15 68.65 72.15L70 73.55V77.5L91.25 98.75C93.3 100.8 96.65 100.8 98.7 98.75C100.75 96.7 100.75 93.35 98.7 91.3L77.5 70ZM47.5 70C35.05 70 25 59.95 25 47.5C25 35.05 35.05 25 47.5 25C59.95 25 70 35.05 70 47.5C70 59.95 59.95 70 47.5 70Z" fill="#3B5379"/>
</g>
<defs>
<clipPath id="clip0_486_3484">
<rect width="120" height="120" fill="white"/>
</clipPath>
</defs>
</svg>
