<svg width="16" height="16" viewBox="0 0 16 16" fill="none" xmlns="http://www.w3.org/2000/svg">
<g clip-path="url(#clip0_563_4097)">
<path d="M11.6665 3C10.3665 3 8.9665 3.26667 7.99984 4C7.03317 3.26667 5.63317 3 4.33317 3C3.03317 3 1.63317 3.26667 0.666504 4V13.7667C0.666504 14.2 1.15317 14.0667 1.1665 14.0667C2.0665 13.6333 3.3665 13.3333 4.33317 13.3333C5.63317 13.3333 7.03317 13.6 7.99984 14.3333C8.89984 13.7667 10.5332 13.3333 11.6665 13.3333C12.7665 13.3333 13.8998 13.5333 14.8332 14.0333C15.1065 14.1733 15.3332 13.9067 15.3332 13.7333V4C14.3398 3.25333 12.9132 3 11.6665 3ZM13.9998 12.3333C13.2665 12.1 12.4665 12 11.6665 12C10.5332 12 8.89984 12.4333 7.99984 13V5.33333C8.89984 4.76667 10.5332 4.33333 11.6665 4.33333C12.4665 4.33333 13.2665 4.43333 13.9998 4.66667V12.3333Z" fill="#5895DC"/>
</g>
<defs>
<clipPath id="clip0_563_4097">
<rect width="16" height="16" fill="white"/>
</clipPath>
</defs>
</svg>
