<svg width="16" height="16" viewBox="0 0 16 16" fill="none" xmlns="http://www.w3.org/2000/svg">
<g clip-path="url(#clip0_571_4129)">
<path d="M7.86671 7.26667C6.35338 6.87333 5.86671 6.46667 5.86671 5.83333C5.86671 5.10667 6.54005 4.6 7.66671 4.6C8.85338 4.6 9.29338 5.16667 9.33338 6H10.8067C10.76 4.85333 10.06 3.8 8.66671 3.46V2H6.66671V3.44C5.37338 3.72 4.33338 4.56 4.33338 5.84667C4.33338 7.38667 5.60671 8.15333 7.46671 8.6C9.13338 9 9.46671 9.58667 9.46671 10.2067C9.46671 10.6667 9.14005 11.4 7.66671 11.4C6.29338 11.4 5.75338 10.7867 5.68005 10H4.21338C4.29338 11.46 5.38671 12.28 6.66671 12.5533V14H8.66671V12.5667C9.96671 12.32 11 11.5667 11 10.2C11 8.30667 9.38005 7.66 7.86671 7.26667Z" fill="#4F5763"/>
</g>
<defs>
<clipPath id="clip0_571_4129">
<rect width="16" height="16" fill="white"/>
</clipPath>
</defs>
</svg>
